<mxfile host="app.diagrams.net" modified="2021-11-02T09:37:19.794Z" agent="5.0 (Windows NT 10.0; Win64; x64) AppleWebKit/537.36 (KHTML, like Gecko) Chrome/95.0.4638.54 Safari/537.36" etag="aCZPEF4WkMuyOQ4pfgd8" version="15.6.5" type="github">
  <diagram id="YSoAcAK5nKxmpnDaiv1Z" name="Page-1">
    <mxGraphModel dx="1185" dy="628" grid="1" gridSize="10" guides="1" tooltips="1" connect="1" arrows="1" fold="1" page="1" pageScale="1" pageWidth="850" pageHeight="1100" math="0" shadow="0">
      <root>
        <mxCell id="0" />
        <mxCell id="1" parent="0" />
        <mxCell id="tM5U6d6ZewU838JSl2oi-1" value="Пользователь" style="shape=umlActor;verticalLabelPosition=bottom;verticalAlign=top;html=1;outlineConnect=0;fillColor=default;strokeColor=default;fontColor=default;" vertex="1" parent="1">
          <mxGeometry x="160" y="350" width="30" height="60" as="geometry" />
        </mxCell>
        <mxCell id="tM5U6d6ZewU838JSl2oi-3" value="" style="rounded=0;whiteSpace=wrap;html=1;fontColor=default;strokeColor=default;fillColor=default;" vertex="1" parent="1">
          <mxGeometry x="280" y="80" width="340" height="570" as="geometry" />
        </mxCell>
        <mxCell id="tM5U6d6ZewU838JSl2oi-2" value="Зарегистрируйте аккаунт" style="ellipse;whiteSpace=wrap;html=1;fontColor=default;strokeColor=default;fillColor=default;" vertex="1" parent="1">
          <mxGeometry x="305" y="90" width="290" height="70" as="geometry" />
        </mxCell>
        <mxCell id="tM5U6d6ZewU838JSl2oi-5" value="Выбор плана подписки" style="ellipse;whiteSpace=wrap;html=1;fontColor=default;strokeColor=default;fillColor=default;" vertex="1" parent="1">
          <mxGeometry x="305" y="170" width="290" height="70" as="geometry" />
        </mxCell>
        <mxCell id="tM5U6d6ZewU838JSl2oi-6" value="Создание задач / работа" style="ellipse;whiteSpace=wrap;html=1;fontColor=default;strokeColor=default;fillColor=default;" vertex="1" parent="1">
          <mxGeometry x="305" y="250" width="290" height="70" as="geometry" />
        </mxCell>
        <mxCell id="tM5U6d6ZewU838JSl2oi-7" value="Настройка напоминаний" style="ellipse;whiteSpace=wrap;html=1;fontColor=default;strokeColor=default;fillColor=default;" vertex="1" parent="1">
          <mxGeometry x="300" y="330" width="290" height="70" as="geometry" />
        </mxCell>
        <mxCell id="tM5U6d6ZewU838JSl2oi-8" value="Создание шаблона проекта задач" style="ellipse;whiteSpace=wrap;html=1;fontColor=default;strokeColor=default;fillColor=default;" vertex="1" parent="1">
          <mxGeometry x="300" y="410" width="290" height="70" as="geometry" />
        </mxCell>
        <mxCell id="tM5U6d6ZewU838JSl2oi-9" value="синхронизация между устройствами клиента" style="ellipse;whiteSpace=wrap;html=1;fontColor=default;strokeColor=default;fillColor=default;" vertex="1" parent="1">
          <mxGeometry x="300" y="490" width="290" height="70" as="geometry" />
        </mxCell>
        <mxCell id="tM5U6d6ZewU838JSl2oi-10" value="Совместное использование шаблона проекта задачи между пользователями (сообществом)" style="ellipse;whiteSpace=wrap;html=1;fontColor=default;strokeColor=default;fillColor=default;" vertex="1" parent="1">
          <mxGeometry x="305" y="570" width="290" height="70" as="geometry" />
        </mxCell>
        <mxCell id="tM5U6d6ZewU838JSl2oi-11" value="Система &lt;br&gt;&#39;приложений" style="shape=umlActor;verticalLabelPosition=bottom;verticalAlign=top;html=1;outlineConnect=0;fillColor=default;strokeColor=default;fontColor=default;" vertex="1" parent="1">
          <mxGeometry x="670" y="350" width="30" height="60" as="geometry" />
        </mxCell>
        <mxCell id="tM5U6d6ZewU838JSl2oi-15" value="" style="endArrow=none;html=1;rounded=0;fontColor=default;strokeColor=default;labelBackgroundColor=default;entryX=0;entryY=0.5;entryDx=0;entryDy=0;" edge="1" parent="1" target="tM5U6d6ZewU838JSl2oi-2">
          <mxGeometry width="50" height="50" relative="1" as="geometry">
            <mxPoint x="190" y="340" as="sourcePoint" />
            <mxPoint x="440" y="340" as="targetPoint" />
          </mxGeometry>
        </mxCell>
        <mxCell id="tM5U6d6ZewU838JSl2oi-16" value="" style="endArrow=none;html=1;rounded=0;labelBackgroundColor=default;fontColor=default;strokeColor=default;entryX=0;entryY=0.5;entryDx=0;entryDy=0;" edge="1" parent="1" target="tM5U6d6ZewU838JSl2oi-5">
          <mxGeometry width="50" height="50" relative="1" as="geometry">
            <mxPoint x="200" y="340" as="sourcePoint" />
            <mxPoint x="440" y="340" as="targetPoint" />
          </mxGeometry>
        </mxCell>
        <mxCell id="tM5U6d6ZewU838JSl2oi-17" value="" style="endArrow=none;html=1;rounded=0;labelBackgroundColor=default;fontColor=default;strokeColor=default;entryX=0;entryY=0.5;entryDx=0;entryDy=0;" edge="1" parent="1" source="tM5U6d6ZewU838JSl2oi-1" target="tM5U6d6ZewU838JSl2oi-6">
          <mxGeometry width="50" height="50" relative="1" as="geometry">
            <mxPoint x="390" y="390" as="sourcePoint" />
            <mxPoint x="440" y="340" as="targetPoint" />
          </mxGeometry>
        </mxCell>
        <mxCell id="tM5U6d6ZewU838JSl2oi-18" value="" style="endArrow=none;html=1;rounded=0;labelBackgroundColor=default;fontColor=default;strokeColor=default;entryX=0;entryY=0.5;entryDx=0;entryDy=0;" edge="1" parent="1" target="tM5U6d6ZewU838JSl2oi-7">
          <mxGeometry width="50" height="50" relative="1" as="geometry">
            <mxPoint x="190" y="380" as="sourcePoint" />
            <mxPoint x="440" y="340" as="targetPoint" />
          </mxGeometry>
        </mxCell>
        <mxCell id="tM5U6d6ZewU838JSl2oi-19" value="" style="endArrow=none;html=1;rounded=0;labelBackgroundColor=default;fontColor=default;strokeColor=default;entryX=0;entryY=0.5;entryDx=0;entryDy=0;" edge="1" parent="1" source="tM5U6d6ZewU838JSl2oi-1" target="tM5U6d6ZewU838JSl2oi-8">
          <mxGeometry width="50" height="50" relative="1" as="geometry">
            <mxPoint x="390" y="390" as="sourcePoint" />
            <mxPoint x="440" y="340" as="targetPoint" />
          </mxGeometry>
        </mxCell>
        <mxCell id="tM5U6d6ZewU838JSl2oi-21" value="" style="endArrow=none;html=1;rounded=0;labelBackgroundColor=default;fontColor=default;strokeColor=default;entryX=0;entryY=0.5;entryDx=0;entryDy=0;" edge="1" parent="1" target="tM5U6d6ZewU838JSl2oi-10">
          <mxGeometry width="50" height="50" relative="1" as="geometry">
            <mxPoint x="200" y="440" as="sourcePoint" />
            <mxPoint x="440" y="340" as="targetPoint" />
          </mxGeometry>
        </mxCell>
        <mxCell id="tM5U6d6ZewU838JSl2oi-22" value="" style="endArrow=none;html=1;rounded=0;labelBackgroundColor=default;fontColor=default;strokeColor=default;exitX=1;exitY=0.5;exitDx=0;exitDy=0;" edge="1" parent="1" source="tM5U6d6ZewU838JSl2oi-9">
          <mxGeometry width="50" height="50" relative="1" as="geometry">
            <mxPoint x="390" y="390" as="sourcePoint" />
            <mxPoint x="660" y="390" as="targetPoint" />
          </mxGeometry>
        </mxCell>
        <mxCell id="tM5U6d6ZewU838JSl2oi-23" value="" style="endArrow=none;html=1;rounded=0;labelBackgroundColor=default;fontColor=default;strokeColor=default;exitX=1;exitY=0.5;exitDx=0;exitDy=0;" edge="1" parent="1" source="tM5U6d6ZewU838JSl2oi-10">
          <mxGeometry width="50" height="50" relative="1" as="geometry">
            <mxPoint x="390" y="390" as="sourcePoint" />
            <mxPoint x="680" y="450" as="targetPoint" />
          </mxGeometry>
        </mxCell>
      </root>
    </mxGraphModel>
  </diagram>
</mxfile>
